<svg xmlns="http://www.w3.org/2000/svg" viewBox="0 0 512 512">
  <defs>
    <linearGradient id="autumnGrad" x1="0%" y1="0%" x2="100%" y2="100%">
      <stop offset="0%" style="stop-color:#FFD700;stop-opacity:1" />
      <stop offset="50%" style="stop-color:#FF8C00;stop-opacity:1" />
      <stop offset="100%" style="stop-color:#8B0000;stop-opacity:1" />
    </linearGradient>
  </defs>
  
  <!-- Stylized Tree Trunk -->
  <path d="M220 350 Q256 300 256 200 Q256 300 292 350 L310 512 L202 512 Z" fill="#5D4037"/>
  
  <!-- Foliage Clusters -->
  <circle cx="256" cy="180" r="120" fill="url(#autumnGrad)" opacity="0.9"/>
  <circle cx="160" cy="220" r="80" fill="#CD5C5C" opacity="0.85"/>
  <circle cx="352" cy="220" r="80" fill="#D4AF37" opacity="0.85"/>
  <circle cx="200" cy="120" r="70" fill="#FF4500" opacity="0.85"/>
  <circle cx="312" cy="120" r="70" fill="#FF8C00" opacity="0.85"/>
  
  <!-- Falling Leaves -->
  <path d="M150 400 Q160 410 150 420 Q140 410 150 400" fill="#FFD700"/>
  <path d="M350 380 Q360 390 350 400 Q340 390 350 380" fill="#FF4500"/>
  <path d="M200 450 Q210 460 200 470 Q190 460 200 450" fill="#8B0000"/>
</svg>